# xmcd CD database file
#
# Track frame offsets:
#	150
#	19164
#	37918
#	60501
#	88795
#	108495
#	121586
#	137315
#	152660
#	178620
#	201811
#	217452
#	247366
#	267691
#	291087
#
# Disc length: 4113 seconds
#
# Revision: 0
# Processed by: cddbd v1.5.2PL0 Copyright (c) Steve Scherf et al.
# Submitted via: jetAudio 7
#
DISCID=de100f0f
DTITLE=David Mooney - Last Train Home
DYEAR=1900
DGENRE=Jazz
TTITLE0=Last Train Home
TTITLE1=I'm Getting Sentimental Over You
TTITLE2=Pools
TTITLE3=If I Could
TTITLE4=Azalea
TTITLE5=Ask Me Now
TTITLE6=Angela's Sad Song
TTITLE7=Reckless Blues
TTITLE8=Spring Ain't Here
TTITLE9=You Must Believe in Spring
TTITLE10=Angela
TTITLE11=Alone Together
TTITLE12=Regrets
TTITLE13=I Didn't Know What Time It Was
TTITLE14=Dou You Know What It Means to Miss New Orleans
EXTD=
EXTT0=
EXTT1=
EXTT2=
EXTT3=
EXTT4=
EXTT5=
EXTT6=
EXTT7=
EXTT8=
EXTT9=
EXTT10=
EXTT11=
EXTT12=
EXTT13=
EXTT14=
PLAYORDER=
